HIERARCHY
ROOT hip
{
  OFFSET 0 0 0
  CHANNELS 6 Xposition Yposition Zposition Zrotation Yrotation Xrotation
  JOINT abdomen
  {
    OFFSET 0 20.6881 -0.73152
    CHANNELS 3 Zrotation Xrotation Yrotation
    JOINT chest
    {
      OFFSET 0 11.7043 -0.48768
      CHANNELS 3 Zrotation Xrotation Yrotation
      JOINT neck
      {
        OFFSET 0 22.1894 -2.19456
        CHANNELS 3 Zrotation Xrotation Yrotation
        JOINT head
        {
          OFFSET -0.24384 7.07133 1.2192
          CHANNELS 3 Zrotation Xrotation Yrotation
          JOINT leftEye
          {
            OFFSET 4.14528 8.04674 8.04672
            CHANNELS 3 Zrotation Xrotation Yrotation
            End Site
            {
              OFFSET 1 0 0
            }
          }
          JOINT rightEye
          {
            OFFSET -3.6576 8.04674 8.04672
            CHANNELS 3 Zrotation Xrotation Yrotation
            End Site
            {
              OFFSET 1 0 0
            }
          }
        }
      }
      JOINT rCollar
      {
        OFFSET -2.68224 19.2634 -4.8768
        CHANNELS 3 Zrotation Xrotation Yrotation
        JOINT rShldr
        {
          OFFSET -8.77824 -1.95073 1.46304
          CHANNELS 3 Zrotation Xrotation Yrotation
          JOINT rForeArm
          {
            OFFSET -28.1742 -1.7115 0.48768
            CHANNELS 3 Zrotation Xrotation Yrotation
            JOINT rHand
            {
              OFFSET -22.5879 0.773209 7.07136
              CHANNELS 3 Zrotation Xrotation Yrotation
              JOINT rThumb1
              {
                OFFSET -1.2192 -0.487915 3.41376
                CHANNELS 3 Zrotation Xrotation Yrotation
                JOINT rThumb2
                {
                  OFFSET -3.37035 -0.52449 3.41376
                  CHANNELS 3 Zrotation Xrotation Yrotation
                  End Site
                  {
                    OFFSET -1.78271 -1.18214 1.43049
                  }
                }
              }
              JOINT rIndex1
              {
                OFFSET -7.75947 0.938293 5.60832
                CHANNELS 3 Zrotation Xrotation Yrotation
                JOINT rIndex2
                {
                  OFFSET -2.54057 -0.884171 1.56538
                  CHANNELS 3 Zrotation Xrotation Yrotation
                  End Site
                  {
                    OFFSET -1.62519 -0.234802 1.16502
                  }
                }
              }
              JOINT rMid1
              {
                OFFSET -8.24714 1.18213 3.41376
                CHANNELS 3 Zrotation Xrotation Yrotation
                JOINT rMid2
                {
                  OFFSET -3.10165 -0.590103 1.0647
                  CHANNELS 3 Zrotation Xrotation Yrotation
                  End Site
                  {
                    OFFSET -2.48547 -0.328903 0.83742
                  }
                }
              }
              JOINT rRing1
              {
                OFFSET -8.82822 0.546677 1.51678
                CHANNELS 3 Zrotation Xrotation Yrotation
                JOINT rRing2
                {
                  OFFSET -2.60934 -0.819778 -0.0198488
                  CHANNELS 3 Zrotation Xrotation Yrotation
                  End Site
                  {
                    OFFSET -2.33842 -0.294052 0.168128
                  }
                }
              }
              JOINT rPinky1
              {
                OFFSET -8.27202 -0.0477905 -0.4584
                CHANNELS 3 Zrotation Xrotation Yrotation
                JOINT rPinky2
                {
                  OFFSET -1.82734 -0.647385 -0.700984
                  CHANNELS 3 Zrotation Xrotation Yrotation
                  End Site
                  {
                    OFFSET -1.69225 -0.51767 -0.607171
                  }
                }
              }
            }
          }
        }
      }
      JOINT lCollar
      {
        OFFSET 2.68224 19.2634 -4.8768
        CHANNELS 3 Zrotation Xrotation Yrotation
        JOINT lShldr
        {
          OFFSET 8.77824 -1.95073 1.46304
          CHANNELS 3 Zrotation Xrotation Yrotation
          JOINT lForeArm
          {
            OFFSET 28.1742 -1.7115 0.48768
            CHANNELS 3 Zrotation Xrotation Yrotation
            JOINT lHand
            {
              OFFSET 22.5879 0.773209 7.07136
              CHANNELS 3 Zrotation Xrotation Yrotation
              JOINT lThumb1
              {
                OFFSET 1.2192 -0.487915 3.41376
                CHANNELS 3 Zrotation Xrotation Yrotation
                JOINT lThumb2
                {
                  OFFSET 3.37035 -0.52449 3.41376
                  CHANNELS 3 Zrotation Xrotation Yrotation
                  End Site
                  {
                    OFFSET 1.78271 -1.18214 1.43049
                  }
                }
              }
              JOINT lIndex1
              {
                OFFSET 7.75947 0.938293 5.60832
                CHANNELS 3 Zrotation Xrotation Yrotation
                JOINT lIndex2
                {
                  OFFSET 2.54057 -0.884171 1.56538
                  CHANNELS 3 Zrotation Xrotation Yrotation
                  End Site
                  {
                    OFFSET 1.62519 -0.234802 1.16502
                  }
                }
              }
              JOINT lMid1
              {
                OFFSET 8.24714 1.18213 3.41376
                CHANNELS 3 Zrotation Xrotation Yrotation
                JOINT lMid2
                {
                  OFFSET 3.10165 -0.590103 1.0647
                  CHANNELS 3 Zrotation Xrotation Yrotation
                  End Site
                  {
                    OFFSET 2.48547 -0.328903 0.83742
                  }
                }
              }
              JOINT lRing1
              {
                OFFSET 8.82822 0.546677 1.51678
                CHANNELS 3 Zrotation Xrotation Yrotation
                JOINT lRing2
                {
                  OFFSET 2.60934 -0.819778 -0.0198488
                  CHANNELS 3 Zrotation Xrotation Yrotation
                  End Site
                  {
                    OFFSET 2.33842 -0.294052 0.168128
                  }
                }
              }
              JOINT lPinky1
              {
                OFFSET 8.27202 -0.0477905 -0.4584
                CHANNELS 3 Zrotation Xrotation Yrotation
                JOINT lPinky2
                {
                  OFFSET 1.82734 -0.647385 -0.700984
                  CHANNELS 3 Zrotation Xrotation Yrotation
                  End Site
                  {
                    OFFSET 1.69225 -0.51767 -0.607171
                  }
                }
              }
            }
          }
        }
      }
    }
  }
  JOINT rButtock
  {
    OFFSET -8.77824 4.35084 1.2192
    CHANNELS 3 Zrotation Xrotation Yrotation
    JOINT rThigh
    {
      OFFSET 0 -1.70687 -2.19456
      CHANNELS 3 Zrotation Xrotation Yrotation
      JOINT rShin
      {
        OFFSET 0 -36.8199 0.73152
        CHANNELS 3 Zrotation Xrotation Yrotation
        JOINT rFoot
        {
          OFFSET 0.73152 -45.1104 -5.12064
          CHANNELS 3 Zrotation Xrotation Yrotation
          End Site
          {
            OFFSET -1.1221 -3.69964 12.103
          }
        }
      }
    }
  }
  JOINT lButtock
  {
    OFFSET 8.77824 4.35084 1.2192
    CHANNELS 3 Zrotation Xrotation Yrotation
    JOINT lThigh
    {
      OFFSET 0 -1.70687 -2.19456
      CHANNELS 3 Zrotation Xrotation Yrotation
      JOINT lShin
      {
        OFFSET 0 -36.8199 0.73152
        CHANNELS 3 Zrotation Xrotation Yrotation
        JOINT lFoot
        {
          OFFSET -0.73152 -45.1104 -5.12064
          CHANNELS 3 Zrotation Xrotation Yrotation
          End Site
          {
            OFFSET 1.1221 -3.69964 12.103
          }
        }
      }
    }
  }
}
MOTION
Frames:	4
Frame Time:	0.00833333
6.47321 83.9958 -122.111 0.0 0.0 0.0 -1.70022 -0.00276352 -0.0463328 -0.469052 0.00196668 -0.0812256 6.24397e-15 0.0 -3.72721e-16 1.90709e-14 3.18055e-15 -1.24551e-15 -0.0 0.0 0.0 -0.0 0.0 0.0 3.22858e-15 -7.80385e-17 0.0 6.88074e-14 -2.09345e-15 -3.37934e-15 1.1449e-12 -4.01943e-13 -1.17681e-13 1.31667e-11 4.17199e-14 -8.36486e-13 3.10447e-11 -7.76012e-13 -2.05464e-12 5.36007e-11 -1.33901e-12 -3.53121e-12 3.1047e-11 -7.76055e-13 -2.05782e-12 7.73091 5.47488 0.417314 3.10446e-11 -7.76354e-13 -2.0451e-12 2.90554 0.965183 0.102902 3.10514e-11 -7.75956e-13 -2.04669e-12 10.2786 0.731801 0.0259123 3.10372e-11 -7.73272e-13 -2.03237e-12 2.22167 -0.733487 -0.20892 3.13273e-15 -7.76503e-17 -2.98177e-16 6.56194e-14 -1.6027e-15 -4.77083e-15 1.15713e-12 2.84858e-13 -7.31528e-14 1.31608e-11 -6.29675e-13 -8.65111e-13 3.1061e-11 -7.47985e-13 -2.05464e-12 5.36536e-11 -1.29131e-12 -3.55745e-12 3.10585e-11 -7.50611e-13 -2.04828e-12 -7.73091 5.47488 -0.417314 3.10625e-11 -7.48225e-13 -2.05782e-12 -2.90554 0.965183 -0.102902 3.10661e-11 -7.48225e-13 -2.05623e-12 -10.2786 0.731801 -0.0259123 3.10659e-11 -7.45442e-13 -2.07054e-12 -2.22167 -0.733487 0.20892 -2.03217e-16 0.0 -3.88251e-19 -0.815241 -1.92421 -0.00353275 -0.00895464 -2.0786 -0.0737753 -0.474539 3.99777 0.134759 2.03217e-16 0.0 3.88251e-19 -1.77358 -6.84758 0.169532 -0.00326668 6.83969 -0.0864347 0.504701 0.00295039 -0.0573556
6.42428 82.188 -121.511 0.643 -5.5306 -4.3553 -2.09461 3.31874 0.343483 -0.0970004 -1.7832 -0.0269606 -0.528281 -0.203584 -0.659626 -0.0975749 -0.259506 -1.15567 -0.0 0.0 0.0 -0.0 0.0 0.0 3.33865e-14 2.52154e-14 3.76643e-15 22.2516 2.25638 1.09839 -3.65204 -1.56056 5.8069 0.0025034 1.10988 0.155878 -1.7613e-10 2.02525e-10 -2.80132e-10 -3.05165e-10 3.50756e-10 -4.83395e-10 -1.76129e-10 2.02526e-10 -2.80138e-10 7.73091 5.47488 0.417314 -1.76131e-10 2.02525e-10 -2.80124e-10 2.90554 0.965183 0.102902 -1.76124e-10 2.02525e-10 -2.80126e-10 10.2786 0.731801 0.0259123 -1.76137e-10 2.02527e-10 -2.80113e-10 2.22167 -0.733487 -0.20892 3.32676e-14 2.52152e-14 3.43525e-15 -21.2458 6.696 -0.123792 3.82115 -1.66379 -6.04457 -0.0115757 -2.38707 0.334429 -3.07176e-10 -1.1127e-10 8.79184e-11 -5.30967e-10 -1.92378e-10 1.50159e-10 -3.07178e-10 -1.11273e-10 8.79246e-11 -7.73091 5.47488 -0.417314 -3.07174e-10 -1.11271e-10 8.79143e-11 -2.90554 0.965183 -0.102902 -3.07174e-10 -1.11272e-10 8.79172e-11 -10.2786 0.731801 -0.0259123 -3.0717e-10 -1.1127e-10 8.7904e-11 -2.22167 -0.733487 0.20892 -2.03217e-16 0.0 -3.88251e-19 -1.02457 -9.43587 0.119673 -0.00747289 17.3904 0.178668 -0.518298 3.56139 -0.978175 2.03217e-16 0.0 3.88251e-19 -3.50429 -8.94903 -0.300456 -0.00673334 13.9334 -0.152866 0.564947 -2.68944 0.265707
6.43951 82.078 -120.574 0.6705 -5.3261 -4.4447 -2.5484 6.82684 0.777287 0.286393 -3.66462 0.0341466 -1.09054 -0.417277 -1.35801 -0.212482 -0.520253 -2.37989 -0.0 0.0 0.0 -0.0 0.0 0.0 6.69783e-14 5.18861e-14 5.23984e-15 45.6782 4.6422 2.2821 -7.17007 -3.15643 11.9583 -0.00142205 2.28365 0.320926 -3.94018e-10 3.84632e-10 -5.70016e-10 -6.82434e-10 6.66155e-10 -9.83625e-10 -3.94018e-10 3.84634e-10 -5.70025e-10 7.73091 5.47488 0.417314 -3.9402e-10 3.84633e-10 -5.7001e-10 2.90554 0.965183 0.102902 -3.94013e-10 3.84633e-10 -5.70013e-10 10.2786 0.731801 0.0259123 -3.94025e-10 3.84632e-10 -5.7e-10 2.22167 -0.733487 -0.20892 6.68331e-14 5.18853e-14 4.87023e-15 -43.69 13.7676 -0.240723 7.47551 -3.35706 -12.4418 0.00659716 -4.91325 0.690323 -6.72256e-10 -2.32304e-10 1.59279e-10 -1.16183e-09 -4.01438e-10 2.71513e-10 -6.72258e-10 -2.32307e-10 1.59285e-10 -7.73091 5.47488 -0.417314 -6.72253e-10 -2.32306e-10 1.59274e-10 -2.90554 0.965183 -0.102902 -6.72258e-10 -2.32307e-10 1.59278e-10 -10.2786 0.731801 -0.0259123 -6.72249e-10 -2.32306e-10 1.59266e-10 -2.22167 -0.733487 0.20892 -2.03217e-16 0.0 -3.88251e-19 -1.19607 -17.3337 0.276165 -0.235854 38.0438 0.544595 -0.573063 3.14364 -2.05916 2.03217e-16 0.0 3.88251e-19 -5.35835 -11.2066 -0.802613 0.0101104 21.4348 -0.227116 0.659172 -5.50126 0.60004
6.46564 82.0619 -119.633 0.7962 -5.0762 -4.4913 -3.02069 9.95999 1.13855 0.657273 -5.35353 0.0819659 -1.5989 -0.610429 -1.97898 -0.324112 -0.777251 -3.46728 -0.0 0.0 0.0 -0.0 0.0 0.0 9.37022e-14 7.58023e-14 1.12993e-14 66.4938 6.75915 3.3157 -10.0209 -4.48968 17.4696 -0.0106328 3.32955 0.468337 -5.9048e-10 6.09127e-10 -8.36286e-10 -1.0227e-09 1.05495e-09 -1.44312e-09 -5.90481e-10 6.0913e-10 -8.36297e-10 7.73091 5.47488 0.417314 -5.90483e-10 6.09128e-10 -8.36281e-10 2.90554 0.965183 0.102902 -5.90475e-10 6.09128e-10 -8.36285e-10 10.2786 0.731801 0.0259123 -5.90487e-10 6.09126e-10 -8.36274e-10 2.22167 -0.733487 -0.20892 9.35374e-14 7.5801e-14 1.09021e-14 -63.6458 20.0876 -0.392735 10.4268 -4.76959 -18.1912 0.049426 -7.16023 1.0103 -9.83649e-10 -3.32315e-10 2.67865e-10 -1.70021e-09 -5.74553e-10 4.57593e-10 -9.83651e-10 -3.32318e-10 2.6787e-10 -7.73091 5.47488 -0.417314 -9.83646e-10 -3.32317e-10 2.67858e-10 -2.90554 0.965183 -0.102902 -9.83655e-10 -3.32319e-10 2.67864e-10 -10.2786 0.731801 -0.0259123 -9.83642e-10 -3.32318e-10 2.67853e-10 -2.22167 -0.733487 0.20892 -2.03217e-16 0.0 -3.88251e-19 -1.33801 -24.4587 0.396834 -0.838674 56.323 1.18841 -0.65674 2.68595 -3.20124 2.03217e-16 0.0 3.88251e-19 -7.07177 -13.1491 -1.26008 0.0426375 28.1205 -0.310068 0.777267 -8.07328 0.920075
